<svg id="Layer_1" data-name="Layer 1" xmlns="http://www.w3.org/2000/svg" viewBox="0 0 725.89 248.68"><defs><style>.cls-1{fill:#fff;}</style></defs><title>frederick-hotel-logo</title><path class="cls-1" d="M546.81,77.16c4.12-.3,8-2.86,8-7.84,0-3.18-.5-6.84-4.82-6.13-5.88-.13-9.28,2.77-8.42,7.9.4,2.37,3.54,6.19,5.2,6.07" transform="translate(-13.47 -15.66)"/><path class="cls-1" d="M728.45,113.56a2.34,2.34,0,0,0-2.87-2.08,7.9,7.9,0,0,0-6.12,4c-1.57,2.5-3.34,4.89-5,7.34-3.65,5.41-7.17,10.91-11,16.22a9.06,9.06,0,0,1-15.47-.76,84.58,84.58,0,0,1-6.56-14.24c-.64-1.87.17-4.84,1.35-6.61,3.37-5,8.55-9.18,10.62-14.59,2.28-5.94,4.29-13.88,2.14-19.22-4.17-10.36-14.8-10.45-22.86-2-3.34,3.48-7.44,6.24-11.23,9.35,0-9.52,0-20,0-30.38,0-3.46.18-6.93.11-10.39,0-1.36-.4-2.77-.35-4.1.07-1.66.45-3.23.07-4.89a3.55,3.55,0,0,0-1.62-2.44,4.26,4.26,0,0,0-3-.07,5.75,5.75,0,0,0-3.15,1.67,6.72,6.72,0,0,0-1.1,2.44c-.13.43-.25.87-.34,1.32-.23,1.19.17,2.21.08,3.36-.1,1.38-.16,2.77-.23,4.16q-.22,4.16-.37,8.32-.29,8.32-.28,16.65c.05,14,.64,27.94.9,41.91a6.09,6.09,0,0,1-1.13,3C642.78,135,633.42,147,617.32,152.22c-11.87,3.84-20.83-.42-21.47-12.53a126.74,126.74,0,0,1,1.71-28.74c1.28-7.15,4.39-14.58,13.27-16,2.2-.35,5.29.12,6.78,1.49,1.3,1.2,1.47,4.3,1.15,6.41-.34,2.27-2.37,4.3-2.64,6.56a7.23,7.23,0,0,0,2,5.47c.83.76,3.64.24,5-.6,6.54-4,8.51-14.78,4.6-22.27s-13.21-9.34-21.58-6.49c-13.33,4.55-17,16.29-19.7,28.45-1.16,5.3-.76,11.29-3.13,15.91a150.61,150.61,0,0,1-15.56,23.9c-2.7,3.45-7.27,8.23-12.11,5.15-2.86-1.82-4.7-7.27-4.74-11.11-.15-14.9.65-29.8,1-44.71.1-3.93.52-8.4-4.81-9.37s-6,3.94-7.7,7.26a12.51,12.51,0,0,0-.48,2.57c-4.17,16.35-9.9,32.15-19.1,46.31-3.92,6-8.94,12.48-15.07,15.66-9.15,4.77-17.39,4.61-18.95-8.33-1.53-12.68,2-24.56,6.68-36.29a91.33,91.33,0,0,1,4.26-8.11c1.38-2.66,2.82-5.29,2.76-8.38a4.29,4.29,0,0,0-.86-2.8,3.44,3.44,0,0,0-2.39-1,8.72,8.72,0,0,0-2.64.37,10.8,10.8,0,0,0-3,1.13,12.45,12.45,0,0,0-1.38,1c-5.23,4.26-12.67,4.61-19.09,3.71-2.64-.37-5.52-.85-7.12-3.22-1.95-2.88-1.72-6.7-4.78-8.9a7.54,7.54,0,0,0-6.14-1.18,5.61,5.61,0,0,0-4.3,4.21,8.7,8.7,0,0,0,.18,2.91l.59,3.28a6.53,6.53,0,0,0,.58,2c.4.74,1.16,1,1.69,1.64a15.17,15.17,0,0,1,1.72,2.68,23.5,23.5,0,0,1,2.24,5.62,33.16,33.16,0,0,1,.44,12.39c-2.09,16.37-12.71,30.44-25.17,40.59-1.34,1.09-2.77,2.09-4.19,3.08a24.16,24.16,0,0,1-4.5,2.71,31.09,31.09,0,0,1-3.87,1.12c-5.08,1.34-11.19,3.84-16.24,1.06-4.39-2.42-6.43-7.72-7.45-12.35-.81-3.68-.21-6.84,3.24-8.75,4.22-2.34,9.14-3.4,13.28-5.91a27.83,27.83,0,0,0,5.53-4.75,73.91,73.91,0,0,0,6.91-8.4c2.1-3,3.94-5.44,4.45-9.08.75-5.4,0-13.08-4.77-16.62-5.44-4.06-18.81-2.1-24.81,2.62-10.11,8-12.89,19.34-13.77,30.75-1.19,15.45-9.64,26.15-19.79,36.16-4.76,4.69-9.51,3.51-12.1-2.73a22.21,22.21,0,0,1-1.36-8.95c.58-20.17,1.42-40.34,2.06-60.51.27-8.33.59-16.69.17-25a3.26,3.26,0,0,0-.35-1.21,14.3,14.3,0,0,0-.38-2.49,4.44,4.44,0,0,0-1-2,4.1,4.1,0,0,0-3.23-1,5.3,5.3,0,0,0-2.21.57c-1.87,1-2.5,3.37-2.8,5.48,0,.31-.05.61-.09.91-.6,1.29-.32,3.06-.2,4.72,0,1.32,0,2.64,0,4q0,4.95,0,9.89,0,10.27,0,20.53a48.21,48.21,0,0,0-10.54-3.16,38.14,38.14,0,0,0-6.4-.16,7,7,0,0,0-3.27.64,5,5,0,0,1-1.23.66c-.26.06-.54.05-.8.13a2.4,2.4,0,0,0-.85.55c-2.4,2.08-5.4,4.5-7.19,7.14-.9,1.33-1.42,3.14-2.31,4.48a9.56,9.56,0,0,0-1.47,3.22c-.65,3-1.39,6-2,9s-1.34,6-2,9-.4,6.36-.49,9.44a4.66,4.66,0,0,1-1.19,3.4l-3.64,5c-2.22,3.06-4.5,6.12-7.65,8.3-3,2.06-5.28,5.08-8.27,7.24a46.56,46.56,0,0,1-20.69,8.07c-9.67,1.38-15.14-6.56-15.35-21,3.68-1.45,7.54-2.76,11.22-4.47,9.66-4.49,17.66-10.63,21.56-21.16s-2-25.88-17.73-22.67c-12.77,2.61-18.75,11-21.89,22.18-2.18,7.72-1.39,16.57-4.71,23.6a87.25,87.25,0,0,1-9.43,15.28c-3.28,4.34-6.86,9.29-11.39,12.38a14.4,14.4,0,0,1-6.7,2.88,16.3,16.3,0,0,1-4.41-.44c-15.61-3-7.76-24.41-6-34.12,1-5.73,1.71-10,6.93-15.19a6.41,6.41,0,0,0,1.33-6.35c-.23-.9.8-2,.68-3.11,0-.25-.11-.5-.13-.75a3.74,3.74,0,0,1,.19-1.12,5.59,5.59,0,0,0-.45-3.81,2.63,2.63,0,0,0-.85-1,2.85,2.85,0,0,0-1.56-.36c-2.34,0-4,1.14-6,2.23a25.25,25.25,0,0,1-6.84,2.59c-4.67,1.05-9.49.94-14.24.7-6.08-.31-5.2-6.13-7.23-9.61-3.54-6.1-8.66-7.26-12.46-2.48-3,3.74-1.52,7.22,1,10.75,2.1,2.92,4.24,6.08,5.25,9.46,1.19,4-.17,15-2,25.28-.2,1.12-.41,2.23-.62,3.32-.25,1.3-1.09,3.08-1.35,4.3l-.29,1.34q-.17.79-.34,1.55c-.89,4-1.73,7.23-2.34,9-.3.86-.62,1.71-1,2.56-.66,1.69,0,.74-.64,2.41a28,28,0,0,0-2.27,12.55,1.5,1.5,0,0,0,.23.86,1.34,1.34,0,0,0,.93.42,6.8,6.8,0,0,0,5.77-2.61c4.06-4.76,3.63-10,5.37-15.83.6-2,10.4-44.4,11.39-44.4h16.07c-5.38,12.81-8.41,25.88-8,39.68a23.6,23.6,0,0,0,2.72,10.39,26.08,26.08,0,0,0,6.93,8c2.65,2,6.33,2.39,9.55,2.66,9.09.75,16.39-2.89,22.16-9.92,3.81-4.65,7.88-9.08,11.09-12.75,2.88,4,5.35,8.23,8.59,11.75,7.67,8.33,24.72,5.43,34.1-.3,9.19-5.61,17.18-13.18,25.78-20,.6,9.63,6.4,16.67,16.55,17.88,9.36,1.11,17.41-3.32,23-11.23,9.12,7.86,12.37,8.47,24.17.31,6-4.16,10.28-10.87,14.93-16,1.69,3,3,7,5.64,9.7s6.55,6.22,10.15,6.55a45.84,45.84,0,0,0,17.34-1.6,59.77,59.77,0,0,0,15.75-7.59A62.53,62.53,0,0,0,448.31,164c11.08-14.08,17-29.8,17.11-48.41h18.22c-5.38,13.16-8.73,26.86-8,41.35.4,7.86,2.43,15.25,9.94,18.72,8,3.68,16.58,1.93,23.52-2.67,13.63-9,21.71-22.77,28.46-37.3.78-1.68,1.48-3.39,2.48-5.68.58,9.65.86,18.18,1.67,26.65.7,7.3,7,13.54,12.55,13,8-.77,14.85-3.68,19.86-10.44,3.39-4.58,7.34-8.75,11.25-13.35,5.49,14.21,12.92,20.3,23.52,18.45,11.78-2.06,23.05-5.68,31.61-14.94,3.26-3.53,7-6.65,11-10.47.37,6.52.69,12.09,1,17.43,7.13,1.76,9.11-1.46,9-7.21a147.33,147.33,0,0,1,.19-16.45c.2-2.07,1.88-4.87,3.66-5.71,2.78-1.32,5.82-.9,7.46,2.91,2,4.61,4.68,8.92,6.84,13.47,5.28,11.15,17.69,12.93,26.54,4a108.23,108.23,0,0,0,12.4-15.5c1.88-2.76,3.7-5.56,5.51-8.37.83-1.28,1.58-2.64,2.42-3.89a9.54,9.54,0,0,0,1.91-3.8,6.84,6.84,0,0,0,0-2.26m-326.53,9.66c4.07-4.19,10.52-5.79,13.58-2.87s2.8,9.66-.63,13.91c-4.59,5.67-12.1,10.05-21.1,11.91,1.44-8.68,2-16.66,8.15-22.95M257,139.12c3.66-3.38,7.37-4.28,11.08-1.38,3.93,3.07,4.26,7.55,1.79,11.85-3.61,6.29-9.53,9.8-16,12.46-1.79.73-3.71,1.13-6.44,1.95,1.47-9.39,2.33-18.17,9.59-24.88M341.19,158c0,4.61.17,10.55,0,16.46-.23,6.14-8.12,13.87-14.15,14-5.66.1-9.21-3.18-10.37-8.33-3.13-14-2.27-28,1.38-41.65,2.2-8.25,14-12,20.76-6.86,2,1.54,3.14,5.22,3.26,8,.25,5.67-.45,11.39-.83,18.4M660.61,118.4c1.17-4.8,1.28-9.63,3.45-13.21a104.75,104.75,0,0,1,13.57-17.38c1.62-1.71,5.46-1.85,8.21-1.64.89.06,2.41,3.62,2.15,5.37-1.62,11.14-12.28,24.83-27.39,26.88" transform="translate(-13.47 -15.66)"/><path class="cls-1" d="M132.25,104a87.35,87.35,0,0,0,15.39-.92c.79-.14,1.57-.28,2.36-.45,4.53-1,8-3.3,11.88-5.59a12.4,12.4,0,0,0,4.84-5.92c.75-1.71.56-3.45.93-5.22s.76-2.82.31-4.7a10.84,10.84,0,0,0-3-5.36,14.39,14.39,0,0,0-6.18-3.31q-.73-.21-1.49-.36a19.85,19.85,0,0,0-5.54-.28c-3.74.31-8.93,1.53-11.78,4.06a28.54,28.54,0,0,1-3.1,2.12c-3,2-4.83,5-6.83,7.91q-.38.56-.75,1.12a58.66,58.66,0,0,0-3.75,6.72H87.61A67.06,67.06,0,0,0,63.2,98.11a50.11,50.11,0,0,0-5.7,2.66,45.52,45.52,0,0,0-8.44,5.92q-.69.62-1.33,1.24-1,1-1.87,1.92c-.8.88-1.54,1.75-2.21,2.62a37.93,37.93,0,0,0-6.93,13.39,5.09,5.09,0,0,0,9.95,2.21A23,23,0,0,1,49,122.53l.39-.68a31.52,31.52,0,0,1,5.26-6.61q.63-.61,1.33-1.21c4-3.47,7.75-6.48,13-7.8,5.53-1.38,12.05-3.64,17.76-3.76,8.88-.19,17.24.4,25.78.38,3.09,0,6.13.69,9.32.14-1.09,3.32-1.83,6.25-2.29,8.35l-1.1,4.94a45.09,45.09,0,0,1-2,6.75c-1,2.61-.63,5.59-1.17,8.32-.49,2.44-1.26,4.92-1.8,7.37l-2,8.82c0,.93-1,2.07-1.43,2.84a8.13,8.13,0,0,1-1.58,2.21c-1.31,1.16-5.11.88-6.94,1.11l-5.45.7a5.1,5.1,0,0,0-4.4,5.7c0,6.09,9.19,3.92,12.64,3.91a2.39,2.39,0,0,1,1.4.29c.66.46.68,1.42.62,2.22-.64,8.47-2.76,16.63-4.79,24.86l-1.09,4.43a55,55,0,0,1-3.36,10.56c-2.25,4.73-6,9.37-9.17,13.57q-1.72,2.3-3.65,4.43A43.41,43.41,0,0,1,75,232.13a36.6,36.6,0,0,1-17.14,5.49l-.43,0A26.44,26.44,0,0,1,45.85,236c-6.57-2.42-11-6.82-15.28-12.13-2.93-3.68-4-9.19-5.06-13.66a8,8,0,0,0-.66-2,5.05,5.05,0,0,0-4-2.38,8.61,8.61,0,0,0-3.87.5c-.92.39-1,1.11-1.79,1.75-.19.16-.42.29-.61.45a3.18,3.18,0,0,0-1,2.06c-.35,2.56,1.07,5.18,2,7.47a62.2,62.2,0,0,0,4.74,9.11q1.08,1.71,2.22,3.23a43.84,43.84,0,0,0,13.75,12.27l1,.56a41.1,41.1,0,0,0,8,3.18c2.59.72,5.1.61,7.68,1.24.58.14,1.15.32,1.73.41,1.61.25,3.48-.22,5.11-.36a46.76,46.76,0,0,0,5.41-.81q1.66-.35,3.41-.85a46.78,46.78,0,0,0,4.91-1.73A49,49,0,0,0,84.49,238a57.74,57.74,0,0,0,9.28-8.94,77.6,77.6,0,0,0,7.41-11.42c7-12,10.79-25.51,13.79-38.88a69.42,69.42,0,0,0,1.87-8.74c.22-2.46-.05-5.1,2-7a8.3,8.3,0,0,1,3.72-1.66,43.75,43.75,0,0,1,6.35-1.05c3.84-.35,9.74-.72,9-6.18a5.09,5.09,0,0,0-5.7-4.4l-11.1,1.43L124,138.11q2.73-12.25,5.47-24.57a76.33,76.33,0,0,1,2.74-9.53m13.06-19.33a15.88,15.88,0,0,1,7.26-2.63q.49,0,.95,0a8.64,8.64,0,0,1,2.4.32c2,.56,2.05,1,2.12,1.28a3.17,3.17,0,0,1,0,1.27,9.51,9.51,0,0,1-3.64,5.8c-3.33,2.18-8.76,3.4-12.68,3.43-1.41,0-3.87-.11-3.72-2.11.1-1.22,2.09-2.52,2.88-3.39a24.35,24.35,0,0,1,4.44-3.94" transform="translate(-13.47 -15.66)"/><polygon class="cls-1" points="305.49 24.48 310.39 24.48 310.39 4.48 318.03 4.48 318.03 0 297.85 0 297.85 4.48 305.49 4.48 305.49 24.48"/><polygon class="cls-1" points="342.14 0 337.23 0 337.23 24.48 342.14 24.48 342.14 14.41 352.93 14.41 352.93 24.48 357.84 24.48 357.84 0 352.93 0 352.93 9.93 342.14 9.93 342.14 0"/><polygon class="cls-1" points="383.71 14.3 395.54 14.3 395.54 10 383.71 10 383.71 4.3 397.15 4.3 397.15 0 378.84 0 378.84 24.48 397.33 24.48 397.33 20.18 383.71 20.18 383.71 14.3"/><polygon class="cls-1" points="268.43 223.77 263.52 223.77 263.52 248.25 268.43 248.25 268.43 238.18 279.23 238.18 279.23 248.25 284.13 248.25 284.13 223.77 279.23 223.77 279.23 233.7 268.43 233.7 268.43 223.77"/><path class="cls-1" d="M330.55,239a12.74,12.74,0,0,0-13.06,12.67v.07c0,7.18,5.58,12.6,13,12.6a12.73,12.73,0,0,0,13.07-12.67c0-7.25-5.59-12.67-13-12.67m7.84,12.74a7.81,7.81,0,0,1-7.84,8.12,8,8,0,0,1-7.91-8.19c0-4.7,3.37-8.19,7.83-8.19a8,8,0,0,1,7.91,8.19Z" transform="translate(-13.47 -15.66)"/><polygon class="cls-1" points="354.74 248.25 359.64 248.25 359.64 228.25 367.28 228.25 367.28 223.77 347.1 223.77 347.1 228.25 354.74 228.25 354.74 248.25"/><polygon class="cls-1" points="391.35 238.07 403.18 238.07 403.18 233.78 391.35 233.78 391.35 228.07 404.8 228.07 404.8 223.77 386.48 223.77 386.48 248.25 404.98 248.25 404.98 243.96 391.35 243.96 391.35 238.07"/><polygon class="cls-1" points="429.77 223.77 424.86 223.77 424.86 248.25 442.28 248.25 442.28 243.85 429.77 243.85 429.77 223.77"/><path class="cls-1" d="M720.4,160.62l1-1.21a4.47,4.47,0,0,0,3,1.26c1,0,1.71-.5,1.71-1.21v0c0-.69-.39-1.06-2.18-1.48-2.06-.5-3.21-1.1-3.21-2.88v0c0-1.66,1.38-2.8,3.3-2.8a5.36,5.36,0,0,1,3.5,1.21l-.91,1.28a4.38,4.38,0,0,0-2.62-1c-1,0-1.57.51-1.57,1.14v0c0,.75.44,1.08,2.3,1.52,2,.5,3.09,1.23,3.09,2.83v0c0,1.81-1.42,2.88-3.45,2.88A6,6,0,0,1,720.4,160.62Z" transform="translate(-13.47 -15.66)"/><path class="cls-1" d="M729.87,152.37h1.81l2.94,4.57,2.94-4.57h1.81V162h-1.7V155.1l-3,4.55h-.05l-3-4.53V162h-1.67Z" transform="translate(-13.47 -15.66)"/></svg>