<?xml version="1.0" encoding="UTF-8" standalone="no"?>
<!DOCTYPE svg PUBLIC "-//W3C//DTD SVG 1.1//EN" "http://www.w3.org/Graphics/SVG/1.1/DTD/svg11.dtd">
<svg width="100%" height="100%" viewBox="0 0 1050 600" version="1.1" xmlns="http://www.w3.org/2000/svg" xmlns:xlink="http://www.w3.org/1999/xlink" xml:space="preserve" style="fill-rule:evenodd;clip-rule:evenodd;stroke-linejoin:round;stroke-miterlimit:1.41421;">
    <g transform="matrix(4.16667,0,0,4.16667,4.33929,-19.8073)">
        <path d="M56.443,85.514L51.353,85.514C51.123,85.514 50.958,85.328 50.958,85.121L50.958,83.431C50.958,83.223 51.123,83.038 51.353,83.038L64.229,83.038C64.456,83.038 64.623,83.223 64.623,83.431L64.623,85.121C64.623,85.328 64.456,85.514 64.229,85.514L59.139,85.514L59.139,98.441C59.139,98.647 58.951,98.83 58.749,98.83L56.831,98.83C56.622,98.83 56.443,98.647 56.443,98.441L56.443,85.514Z" style="fill:rgb(150,123,100);fill-rule:nonzero;"/>
        <path d="M75.414,83.431C75.414,83.223 75.577,83.038 75.804,83.038L82.607,83.038C85.081,83.038 87.916,85.072 87.916,88.37C87.916,91.579 86.215,92.874 84.423,93.596C84.423,93.596 84.876,93.795 85.67,94.737C86.296,95.47 87.782,98.232 87.782,98.232C87.93,98.501 87.782,98.83 87.435,98.83L85.269,98.83C85.084,98.83 84.983,98.729 84.94,98.647C84.94,98.647 84.45,97.318 83.458,96.016C82.463,94.703 80.833,93.954 80.833,93.954L78.091,93.954L78.091,98.441C78.091,98.647 77.907,98.83 77.701,98.83L75.804,98.83C75.577,98.83 75.414,98.647 75.414,98.441L75.414,83.431ZM82.381,91.747C84.933,91.747 85.559,89.521 85.559,88.37C85.559,86.18 83.474,85.514 82.381,85.514L78.112,85.514L78.112,91.747L82.381,91.747Z" style="fill:rgb(150,123,100);fill-rule:nonzero;"/>
        <path d="M171.972,93.954L169.228,93.954L169.228,98.441C169.228,98.647 169.043,98.83 168.837,98.83L166.942,98.83C166.716,98.83 166.55,98.647 166.55,98.441L166.55,83.431C166.55,83.223 166.716,83.038 166.942,83.038L173.743,83.038C176.22,83.038 179.056,85.072 179.056,88.37C179.056,91.836 176.959,93.276 175.187,93.767C174.68,93.909 171.972,93.954 171.972,93.954ZM173.52,91.553C176.07,91.553 176.695,89.521 176.695,88.37C176.695,86.18 174.611,85.514 173.52,85.514L169.249,85.514L169.249,91.553L173.52,91.553Z" style="fill:rgb(150,123,100);fill-rule:nonzero;"/>
        <path d="M99.665,83.431C99.665,83.223 99.852,83.038 100.055,83.038L101.975,83.038C102.182,83.038 102.368,83.223 102.368,83.431L102.368,98.441C102.368,98.647 102.182,98.83 101.975,98.83L100.055,98.83C99.852,98.83 99.665,98.647 99.665,98.441L99.665,83.431Z" style="fill:rgb(150,123,100);fill-rule:nonzero;"/>
        <path d="M188.942,83.431C188.942,83.223 189.128,83.038 189.335,83.038L191.253,83.038C191.477,83.038 191.643,83.223 191.643,83.431L191.643,89.804L198.363,89.804L198.363,83.431C198.363,83.223 198.524,83.038 198.752,83.038L200.651,83.038C200.856,83.038 201.041,83.223 201.041,83.431L201.041,98.441C201.041,98.647 200.856,98.83 200.651,98.83L198.752,98.83C198.524,98.83 198.363,98.647 198.363,98.441L198.363,92.295L191.643,92.295L191.643,98.441C191.643,98.647 191.477,98.83 191.253,98.83L189.335,98.83C189.128,98.83 188.942,98.647 188.942,98.441L188.942,83.431Z" style="fill:rgb(150,123,100);fill-rule:nonzero;"/>
        <path d="M92.827,108.497C92.827,108.357 92.949,108.236 93.086,108.236L94.353,108.236C94.503,108.236 94.613,108.357 94.613,108.497L94.613,112.1L99.047,112.1L99.047,108.497C99.047,108.357 99.154,108.236 99.307,108.236L100.559,108.236C100.695,108.236 100.815,108.357 100.815,108.497L100.815,117.504C100.815,117.638 100.695,117.766 100.559,117.766L99.307,117.766C99.154,117.766 99.047,117.638 99.047,117.504L99.047,113.748L94.613,113.748L94.613,117.504C94.613,117.638 94.503,117.766 94.353,117.766L93.086,117.766C92.949,117.766 92.827,117.638 92.827,117.504L92.827,108.497Z" style="fill:rgb(150,123,100);fill-rule:nonzero;"/>
        <path d="M111.577,108.102C114.303,108.102 116.477,110.288 116.477,113.011C116.477,115.736 114.303,117.9 111.577,117.9C108.858,117.9 106.693,115.736 106.693,113.011C106.693,110.288 108.858,108.102 111.577,108.102ZM111.577,116.13C113.294,116.13 114.712,114.727 114.712,113.011C114.712,111.299 113.294,109.867 111.577,109.867C109.866,109.867 108.465,111.299 108.465,113.011C108.465,114.727 109.866,116.13 111.577,116.13Z" style="fill:rgb(150,123,100);fill-rule:nonzero;"/>
        <path d="M123.525,109.867L120.535,109.867C120.384,109.867 120.279,109.746 120.279,109.61L120.279,108.497C120.279,108.357 120.384,108.236 120.535,108.236L128.295,108.236C128.447,108.236 128.554,108.357 128.554,108.497L128.554,109.61C128.554,109.746 128.447,109.867 128.295,109.867L125.307,109.867L125.307,117.504C125.307,117.638 125.184,117.766 125.049,117.766L123.786,117.766C123.65,117.766 123.525,117.638 123.525,117.504L123.525,109.867Z" style="fill:rgb(150,123,100);fill-rule:nonzero;"/>
        <path d="M133.139,108.497C133.139,108.357 133.251,108.236 133.396,108.236L139.394,108.236C139.543,108.236 139.653,108.357 139.653,108.497L139.653,109.61C139.653,109.746 139.543,109.867 139.394,109.867L134.913,109.867L134.913,112.1L138.271,112.1C138.406,112.1 138.53,112.225 138.53,112.36L138.53,113.49C138.53,113.638 138.406,113.748 138.271,113.748L134.913,113.748L134.913,116.13L139.394,116.13C139.543,116.13 139.653,116.255 139.653,116.39L139.653,117.504C139.653,117.638 139.543,117.766 139.394,117.766L133.396,117.766C133.251,117.766 133.139,117.638 133.139,117.504L133.139,108.497Z" style="fill:rgb(150,123,100);fill-rule:nonzero;"/>
        <path d="M145.225,108.497C145.225,108.357 145.332,108.236 145.482,108.236L146.736,108.236C146.872,108.236 146.992,108.357 146.992,108.497L146.992,116.13L151.373,116.13C151.523,116.13 151.633,116.255 151.633,116.39L151.633,117.504C151.633,117.638 151.523,117.766 151.373,117.766L145.482,117.766C145.332,117.766 145.225,117.638 145.225,117.504L145.225,108.497Z" style="fill:rgb(150,123,100);fill-rule:nonzero;"/>
        <path d="M155.619,116.429L156.11,115.589C156.219,115.394 156.451,115.394 156.574,115.492C156.644,115.529 157.6,116.234 158.487,116.234C159.194,116.234 159.721,115.772 159.721,115.183C159.721,114.496 159.281,114.116 158.14,113.65C156.86,113.138 155.577,112.319 155.577,110.712C155.577,109.501 156.477,108.102 158.641,108.102C160.033,108.102 161.089,108.811 161.36,109.012C161.5,109.095 161.543,109.325 161.446,109.462L160.927,110.235C160.818,110.402 160.615,110.51 160.452,110.402C160.343,110.334 159.504,109.76 158.758,109.76C157.981,109.76 157.558,110.274 157.558,110.712C157.558,111.35 157.867,111.677 158.968,112.126C160.288,112.66 161.812,113.448 161.812,115.202C161.812,116.604 160.601,117.9 158.682,117.9C156.969,117.9 155.959,117.097 155.691,116.838C155.566,116.715 155.494,116.65 155.619,116.429Z" style="fill:rgb(150,123,100);fill-rule:nonzero;"/>
        <path d="M154.301,83.038L152.405,83.038C152.38,83.038 152.36,83.05 152.332,83.052C152.302,83.044 152.266,83.038 152.23,83.038L151.899,83.038C151.712,83.038 151.608,83.119 151.547,83.241L147.012,90.693C146.995,90.693 146.995,90.693 146.952,90.693L142.417,83.241C142.352,83.119 142.231,83.038 142.064,83.038L141.736,83.038C141.725,83.038 141.716,83.041 141.706,83.041C141.701,83.041 141.701,83.038 141.692,83.038L139.776,83.038C139.568,83.038 139.383,83.223 139.383,83.431L139.383,98.441C139.383,98.647 139.568,98.83 139.776,98.83L141.692,98.83C141.919,98.83 142.082,98.647 142.082,98.441L142.082,91.388L142.082,88.893L142.082,87.692L146.434,94.59C146.497,94.714 146.601,94.812 146.788,94.812L147.158,94.812C147.341,94.812 147.463,94.714 147.506,94.59C147.506,94.59 150.171,90.453 152.016,87.642L152.016,98.441C152.016,98.647 152.178,98.83 152.405,98.83L154.301,98.83C154.505,98.83 154.693,98.647 154.693,98.441L154.693,83.431C154.693,83.223 154.505,83.038 154.301,83.038Z" style="fill:rgb(150,123,100);fill-rule:nonzero;"/>
        <path d="M114.951,83.468C114.951,83.264 115.139,83.076 115.345,83.076L117.3,83.076C117.53,83.076 117.693,83.264 117.693,83.468L117.693,92.807C117.693,94.559 118.888,96.393 120.68,96.393C120.72,96.393 122.122,96.393 122.159,96.39C123.888,96.338 125.054,94.523 125.054,92.826L125.054,83.468C125.054,83.264 125.218,83.076 125.443,83.076L127.399,83.076C127.605,83.076 127.792,83.264 127.792,83.468L127.792,92.952C127.792,96.062 125.338,99.039 122.115,99.074C122.093,99.074 120.706,99.076 120.68,99.076C117.445,99.076 114.951,96.082 114.951,92.952L114.951,83.468Z" style="fill:rgb(150,123,100);fill-rule:nonzero;"/>
        <path d="M133.443,34.59C133.443,32.076 131.133,29.968 128.015,29.375C128.201,29.053 128.315,28.685 128.315,28.287C128.315,27.082 127.335,26.1 126.132,26.1C124.93,26.1 123.948,27.082 123.948,28.287C123.948,28.7 124.07,29.083 124.271,29.413C121.252,30.055 119.038,32.128 119.038,34.59C119.038,37.33 121.772,39.585 125.308,39.928L125.308,40.92C124.923,40.92 124.61,41.234 124.61,41.617C124.61,42.005 124.923,42.319 125.308,42.319L125.308,42.902C124.923,42.902 124.61,43.216 124.61,43.602C124.61,43.988 124.923,44.302 125.308,44.302L125.308,56.963C124.923,56.963 124.61,57.276 124.61,57.661C124.61,58.049 124.923,58.362 125.308,58.362L125.308,59.646L122.168,59.646C121.96,59.646 121.794,59.81 121.794,60.018L121.794,60.761C121.794,60.967 121.96,61.133 122.168,61.133L125.308,61.133L125.308,62.126L124.566,62.126C124.36,62.126 124.194,62.291 124.194,62.497L124.194,65.099L122.912,65.099L122.912,62.497C122.912,62.291 122.745,62.126 122.539,62.126L122.168,62.126C121.96,62.126 121.794,62.291 121.794,62.497L121.794,66.215C121.794,66.42 121.96,66.586 122.168,66.586L125.308,66.586L125.308,68.073C125.308,68.62 125.751,69.065 126.298,69.065C126.845,69.065 127.288,68.62 127.288,68.073L127.288,66.586L130.429,66.586C130.636,66.586 130.804,66.42 130.804,66.215L130.804,65.47C130.804,65.266 130.636,65.099 130.429,65.099L129.58,65.099L129.58,63.983C129.58,63.778 129.417,63.612 129.21,63.612L128.838,63.612C128.631,63.612 128.465,63.778 128.465,63.983L128.464,63.983L128.464,65.099L127.288,65.099L127.288,61.133L128.464,61.133L128.464,62.247L128.465,62.247C128.465,62.453 128.631,62.619 128.838,62.619L129.21,62.619C129.417,62.619 129.58,62.453 129.58,62.247L129.58,61.133L130.429,61.133C130.636,61.133 130.804,60.967 130.804,60.761L130.804,60.018C130.804,59.81 130.636,59.646 130.429,59.646L127.288,59.646L127.288,58.362C127.675,58.362 127.989,58.049 127.989,57.661C127.989,57.276 127.675,56.963 127.288,56.963L127.288,44.302C127.675,44.302 127.989,43.988 127.989,43.602C127.989,43.216 127.675,42.902 127.288,42.902L127.288,42.319C127.675,42.319 127.989,42.005 127.989,41.617C127.989,41.234 127.675,40.92 127.288,40.92L127.288,39.915C130.768,39.534 133.443,37.3 133.443,34.59ZM126.132,27.399C126.622,27.399 127.019,27.796 127.019,28.287C127.019,28.777 126.622,29.175 126.132,29.175C125.645,29.175 125.246,28.777 125.246,28.287C125.246,27.796 125.645,27.399 126.132,27.399ZM120.839,34.59C120.839,32.932 122.218,31.511 124.176,30.913C125.468,30.743 126.211,31.346 126.211,31.346L126.219,31.346C126.219,31.346 126.995,30.714 128.345,30.924C130.283,31.529 131.643,32.943 131.643,34.59C131.643,36.243 130.278,37.659 128.334,38.262C126.991,38.468 126.219,37.839 126.219,37.839L126.211,37.839C126.211,37.839 125.473,38.438 124.189,38.274C122.224,37.678 120.839,36.254 120.839,34.59Z" style="fill:rgb(150,123,100);fill-rule:nonzero;"/>
        <path d="M164.384,116.221L164.384,115.737L164.799,115.737C164.957,115.737 165.054,115.835 165.054,115.98C165.054,116.111 164.957,116.221 164.799,116.221L164.384,116.221ZM164.117,116.976C164.117,117.018 164.151,117.056 164.198,117.056L164.308,117.056C164.355,117.056 164.389,117.018 164.389,116.976L164.389,116.467L164.702,116.467L164.94,116.997C164.952,117.022 164.982,117.056 165.016,117.056L165.16,117.056C165.219,117.056 165.262,116.992 165.232,116.942C165.147,116.776 165.063,116.607 164.978,116.442C165.097,116.412 165.321,116.298 165.321,115.98C165.321,115.662 165.063,115.505 164.799,115.505L164.198,115.505C164.151,115.505 164.117,115.543 164.117,115.586L164.117,116.976ZM163.38,116.285C163.38,115.581 163.948,115.017 164.647,115.017C165.351,115.017 165.915,115.581 165.915,116.285C165.915,116.984 165.351,117.552 164.647,117.552C163.948,117.552 163.38,116.984 163.38,116.285ZM163.126,116.285C163.126,117.124 163.808,117.806 164.647,117.806C165.487,117.806 166.173,117.124 166.173,116.285C166.173,115.446 165.487,114.759 164.647,114.759C163.808,114.759 163.126,115.446 163.126,116.285Z" style="fill:rgb(150,123,100);fill-rule:nonzero;"/>
    </g>
</svg>
