<svg xmlns="http://www.w3.org/2000/svg" width="243" height="163" viewBox="0 0 243 163">
  <metadata><?xpacket begin="﻿" id="W5M0MpCehiHzreSzNTczkc9d"?>
<x:xmpmeta xmlns:x="adobe:ns:meta/" x:xmptk="Adobe XMP Core 5.6-c138 79.159824, 2016/09/14-01:09:01        ">
   <rdf:RDF xmlns:rdf="http://www.w3.org/1999/02/22-rdf-syntax-ns#">
      <rdf:Description rdf:about=""/>
   </rdf:RDF>
</x:xmpmeta>
                                                                                                    
                                                                                                    
                                                                                                    
                                                                                                    
                                                                                                    
                                                                                                    
                                                                                                    
                                                                                                    
                                                                                                    
                                                                                                    
                                                                                                    
                                                                                                    
                                                                                                    
                                                                                                    
                                                                                                    
                                                                                                    
                                                                                                    
                                                                                                    
                                                                                                    
                                                                                                    
                           
<?xpacket end="w"?></metadata>
<defs>
    <style>
      .cls-1 {
        fill: #f4f0e0;
        fill-rule: evenodd;
      }
    </style>
  </defs>
  <path id="Logo_Triump_857650_" data-name="Logo Triump #857650 " class="cls-1" d="M13.55,100.906H5.613A0.613,0.613,0,0,1,5,100.291V97.649a0.612,0.612,0,0,1,.615-0.614H25.69a0.613,0.613,0,0,1,.614.614v2.642a0.614,0.614,0,0,1-.614.615H17.753v20.216a0.632,0.632,0,0,1-.607.608H14.155a0.622,0.622,0,0,1-.6-0.608V100.906h0Zm29.579-3.257a0.609,0.609,0,0,1,.608-0.614H54.344a8.4,8.4,0,0,1,8.277,8.339c0,5.017-2.653,7.043-5.447,8.171a6.707,6.707,0,0,1,1.945,1.786,53.788,53.788,0,0,1,3.293,5.465,0.608,0.608,0,0,1-.542.935H58.495a0.547,0.547,0,0,1-.512-0.287,17.8,17.8,0,0,0-2.312-4.114,12.225,12.225,0,0,0-4.092-3.225H47.3v7.018a0.628,0.628,0,0,1-.609.608H43.737a0.606,0.606,0,0,1-.608-0.608V97.649h0Zm10.863,13c3.979,0,4.955-3.48,4.955-5.28,0-3.426-3.251-4.467-4.955-4.467H47.336v9.747h6.655ZM193.677,114.1H189.4v7.018a0.63,0.63,0,0,1-.61.608h-2.954a0.609,0.609,0,0,1-.611-0.608V97.649a0.612,0.612,0,0,1,.611-0.614h10.6a8.4,8.4,0,0,1,8.283,8.339c0,5.419-3.269,7.67-6.032,8.438a46.981,46.981,0,0,1-5.013.293h0Zm2.414-3.754a4.712,4.712,0,0,0,4.95-4.977c0-3.426-3.249-4.467-4.95-4.467h-6.659v9.444h6.659ZM80.94,97.649a0.634,0.634,0,0,1,.607-0.614h2.994a0.634,0.634,0,0,1,.613.614v23.473a0.631,0.631,0,0,1-.613.608H81.547a0.631,0.631,0,0,1-.607-0.608V97.649h0Zm139.2,0a0.634,0.634,0,0,1,.613-0.614h2.99a0.611,0.611,0,0,1,.608.614v9.966h10.478V97.649a0.606,0.606,0,0,1,.606-0.614h2.961a0.632,0.632,0,0,1,.608.614v23.473a0.629,0.629,0,0,1-.608.608h-2.961a0.6,0.6,0,0,1-.606-0.608V111.51H224.347v9.612a0.608,0.608,0,0,1-.608.608h-2.99a0.631,0.631,0,0,1-.613-0.608V97.649h0Zm-149.858,39.2a0.416,0.416,0,0,1,.4-0.408h1.976a0.4,0.4,0,0,1,.4.408v5.634h6.914v-5.634a0.4,0.4,0,0,1,.4-0.408h1.952a0.413,0.413,0,0,1,.4.408v14.084a0.422,0.422,0,0,1-.4.41H80.382a0.408,0.408,0,0,1-.4-0.41v-5.873H73.063v5.873a0.411,0.411,0,0,1-.4.41H70.682a0.425,0.425,0,0,1-.4-0.41V136.847h0Zm29.234-.617a7.661,7.661,0,1,1-7.615,7.676,7.627,7.627,0,0,1,7.615-7.676h0Zm0,12.553a4.9,4.9,0,1,0-4.852-4.877,4.9,4.9,0,0,0,4.852,4.877h0Zm18.629-9.794h-4.662a0.4,0.4,0,0,1-.4-0.4v-1.741a0.4,0.4,0,0,1,.4-0.408h12.1a0.4,0.4,0,0,1,.4.408v1.741a0.4,0.4,0,0,1-.4.4h-4.659v11.942a0.426,0.426,0,0,1-.4.41h-1.969a0.429,0.429,0,0,1-.407-0.41V138.989h0Zm14.99-2.142a0.4,0.4,0,0,1,.4-0.408h9.352a0.4,0.4,0,0,1,.4.408v1.741a0.4,0.4,0,0,1-.4.4H135.9v3.492h5.236a0.423,0.423,0,0,1,.4.407v1.766a0.406,0.406,0,0,1-.4.4H135.9v3.725h6.987a0.409,0.409,0,0,1,.4.407v1.741a0.412,0.412,0,0,1-.4.41h-9.352a0.412,0.412,0,0,1-.4-0.41V136.847h0Zm18.843,0a0.4,0.4,0,0,1,.4-0.408h1.955a0.414,0.414,0,0,1,.4.408v11.936h6.83a0.409,0.409,0,0,1,.406.407v1.741a0.412,0.412,0,0,1-.406.41h-9.185a0.408,0.408,0,0,1-.4-0.41V136.847h0Zm16.206,12.4,0.766-1.314a0.485,0.485,0,0,1,.723-0.151,6.243,6.243,0,0,0,2.983,1.16,1.768,1.768,0,0,0,1.924-1.644c0-1.074-.686-1.669-2.465-2.4-2-.8-4-2.081-4-4.594,0-1.894,1.4-4.081,4.777-4.081a7.457,7.457,0,0,1,4.239,1.422,0.521,0.521,0,0,1,.135.7l-0.81,1.209a0.553,0.553,0,0,1-.74.262,5.654,5.654,0,0,0-2.642-1,1.69,1.69,0,0,0-1.87,1.489c0,1,.481,1.509,2.2,2.211,2.058,0.834,4.434,2.068,4.434,4.81,0,2.193-1.888,4.219-4.88,4.219a6.782,6.782,0,0,1-4.663-1.661,0.417,0.417,0,0,1-.113-0.639h0Zm-2.055-52.217h-2.956c-0.039,0-.07.017-0.114,0.021a0.613,0.613,0,0,0-.159-0.022H162.38a0.556,0.556,0,0,0-.549.317l-7.07,11.655h-0.094L147.6,97.35a0.594,0.594,0,0,0-.55-0.317h-0.511c-0.018,0-.032.005-0.047,0.005a0.125,0.125,0,0,0-.022,0h-2.987a0.632,0.632,0,0,0-.613.614v23.473a0.63,0.63,0,0,0,.613.608h2.987a0.606,0.606,0,0,0,.608-0.608V104.313L153.86,115.1a0.576,0.576,0,0,0,.551.349h0.577a0.54,0.54,0,0,0,.543-0.349s4.155-6.469,7.032-10.865v16.889a0.6,0.6,0,0,0,.606.608h2.956a0.634,0.634,0,0,0,.612-0.608V97.649a0.637,0.637,0,0,0-.612-0.614h0Zm-61.352.674a0.64,0.64,0,0,1,.614-0.614h3.048a0.613,0.613,0,0,1,.613.614v14.6c0,2.74,1.863,5.609,4.657,5.609,0.062,0,2.248,0,2.306-.006,2.7-.079,4.514-2.919,4.514-5.572V97.708a0.612,0.612,0,0,1,.606-0.614h3.05a0.639,0.639,0,0,1,.613.614v14.83c0,4.863-3.826,9.518-8.852,9.573l-2.237,0c-5.044,0-8.932-4.68-8.932-9.575V97.708h0ZM133.6,21.273c0-3.931-3.6-7.226-8.464-8.154a3.383,3.383,0,0,0,.47-1.7,3.406,3.406,0,1,0-6.811,0,3.372,3.372,0,0,0,.5,1.762c-4.707,1-8.159,4.246-8.159,8.1,0,4.285,4.262,7.812,9.776,8.349v1.551a1.094,1.094,0,0,0,0,2.187v0.912a1.1,1.1,0,0,0,0,2.19v19.8a1.094,1.094,0,0,0,0,2.187v2.007h-4.9a0.579,0.579,0,0,0-.583.581V62.2a0.581,0.581,0,0,0,.583.582h4.9v1.552h-1.157a0.579,0.579,0,0,0-.58.58v4.069h-2V64.912a0.58,0.58,0,0,0-.582-0.58h-0.578a0.58,0.58,0,0,0-.583.58v5.816a0.581,0.581,0,0,0,.583.58h4.9v2.326a1.544,1.544,0,1,0,3.087,0V71.308h4.9a0.582,0.582,0,0,0,.583-0.58V69.562a0.584,0.584,0,0,0-.583-0.581h-1.324V67.237a0.576,0.576,0,0,0-.578-0.579h-0.58a0.579,0.579,0,0,0-.582.579h0v1.744h-1.833v-6.2h1.833v1.743h0a0.58,0.58,0,0,0,.582.582h0.58a0.577,0.577,0,0,0,.578-0.582V62.78h1.324a0.583,0.583,0,0,0,.583-0.582V61.036a0.581,0.581,0,0,0-.583-0.581h-4.9V58.448a1.094,1.094,0,0,0,0-2.187v-19.8a1.1,1.1,0,0,0,0-2.19V33.359a1.094,1.094,0,0,0,0-2.187V29.6c5.426-.6,9.6-4.09,9.6-8.328h0Zm-11.4-11.245a1.389,1.389,0,1,1-1.382,1.388,1.386,1.386,0,0,1,1.382-1.388h0Zm-8.253,11.245c0-2.592,2.15-4.815,5.2-5.75a4.345,4.345,0,0,1,3.173.677h0.012a4.37,4.37,0,0,1,3.315-.66c3.022,0.947,5.142,3.159,5.142,5.733s-2.128,4.8-5.159,5.743a4.36,4.36,0,0,1-3.3-.662h-0.012a4.324,4.324,0,0,1-3.153.679c-3.064-.933-5.223-3.158-5.223-5.761h0Zm75.734,128.952v-1.763H191.2a0.848,0.848,0,0,1,.926.885,0.87,0.87,0,0,1-.926.878h-1.508Zm-0.97,2.751a0.292,0.292,0,0,0,.294.291h0.4a0.293,0.293,0,0,0,.294-0.291V151.12h1.137l0.865,1.932a0.362,0.362,0,0,0,.276.215h0.523a0.285,0.285,0,0,0,.262-0.414c-0.309-.6-0.614-1.221-0.923-1.822a1.636,1.636,0,0,0,1.246-1.684,1.744,1.744,0,0,0-1.9-1.73h-2.184a0.292,0.292,0,0,0-.294.294v5.065h0Zm-2.677-2.517a4.6,4.6,0,1,1,4.6,4.616,4.605,4.605,0,0,1-4.6-4.616m-0.923,0a5.535,5.535,0,1,0,5.525-5.56,5.537,5.537,0,0,0-5.525,5.56"/>
</svg>
