<?xml version="1.0" encoding="utf-8"?>
<!-- Generator: Adobe Illustrator 21.0.0, SVG Export Plug-In . SVG Version: 6.00 Build 0)  -->
<svg version="1.1" id="Layer_1" xmlns="http://www.w3.org/2000/svg" xmlns:xlink="http://www.w3.org/1999/xlink" x="0px" y="0px"
	 viewBox="0 0 207.9 131.7" style="enable-background:new 0 0 207.9 131.7;" xml:space="preserve">
<style type="text/css">
	.st0{fill:#857650;}
</style>
<title>triumph-logo</title>
<path class="st0" d="M7.6,82.3H0.5c-0.3,0-0.5-0.2-0.5-0.5c0,0,0,0,0,0v-2.4c0-0.3,0.2-0.5,0.5-0.5c0,0,0,0,0,0h17.9
	c0.3,0,0.5,0.2,0.5,0.5c0,0,0,0,0,0v2.3c0,0.3-0.2,0.5-0.5,0.5c0,0,0,0,0,0h-7.1v17.9c0,0.3-0.2,0.5-0.5,0.5H8.1
	c-0.3,0-0.5-0.2-0.5-0.5V82.3z"/>
<path class="st0" d="M33.9,79.4c0-0.3,0.2-0.5,0.5-0.5l0,0h9.4c4.1,0.1,7.3,3.3,7.3,7.4c0,4.4-2.4,6.2-4.8,7.2
	c0.7,0.4,1.3,0.9,1.7,1.6c1.1,1.6,2,3.2,2.9,4.8c0.2,0.3,0.1,0.6-0.2,0.7c-0.1,0.1-0.2,0.1-0.3,0.1h-3c-0.2,0-0.4-0.1-0.5-0.3
	c-0.5-1.3-1.2-2.5-2.1-3.7c-1-1.2-2.2-2.2-3.6-2.9h-3.8v6.2c0,0.3-0.2,0.5-0.5,0.5h-2.6c-0.3,0-0.5-0.2-0.5-0.5l0,0V79.4z
	 M43.5,90.9c3.5,0,4.4-3.1,4.4-4.7c0-3-2.9-4-4.4-4h-5.9v8.6L43.5,90.9z"/>
<path class="st0" d="M167.6,94h-3.8v6.2c0,0.3-0.2,0.5-0.5,0.5h-2.6c-0.3,0-0.5-0.2-0.5-0.5V79.4c0-0.3,0.2-0.5,0.5-0.5h9.4
	c4.1,0,7.3,3.3,7.4,7.4c0,4.8-2.9,6.8-5.4,7.5C170.6,93.9,169.1,94,167.6,94L167.6,94z M169.8,90.7c2.3,0.1,4.3-1.6,4.4-3.9
	c0-0.2,0-0.3,0-0.5c0-3-2.9-4-4.4-4h-5.9v8.4L169.8,90.7z"/>
<path class="st0" d="M67.5,79.4c0-0.3,0.2-0.5,0.5-0.5h2.7c0.3,0,0.5,0.2,0.5,0.5v20.8c0,0.3-0.2,0.5-0.5,0.5H68
	c-0.3,0-0.5-0.2-0.5-0.5L67.5,79.4L67.5,79.4z"/>
<path class="st0" d="M191.1,79.4c0-0.3,0.2-0.5,0.5-0.5h2.7c0.3,0,0.5,0.2,0.5,0.5v8.8h9.3v-8.8c0-0.3,0.2-0.5,0.5-0.5h2.6
	c0.3,0,0.5,0.2,0.5,0.5v20.8c0,0.3-0.2,0.5-0.5,0.5h-2.6c-0.3,0-0.5-0.2-0.5-0.5v-8.5h-9.3v8.5c0,0.3-0.2,0.5-0.5,0.5h-2.7
	c-0.3,0-0.5-0.2-0.5-0.5V79.4z"/>
<path class="st0" d="M58,114.1c0-0.2,0.2-0.4,0.4-0.4h1.8c0.2,0,0.4,0.2,0.4,0.4l0,0v5h6.1v-5c0-0.2,0.2-0.4,0.4-0.4l0,0h1.7
	c0.2,0,0.3,0.2,0.3,0.4v12.5c0,0.2-0.2,0.3-0.3,0.4H67c-0.2,0-0.4-0.2-0.4-0.4l0,0v-5.2h-6.1v5.2c0,0.2-0.2,0.4-0.4,0.4l0,0h-1.8
	c-0.2,0-0.4-0.2-0.4-0.4V114.1z"/>
<path class="st0" d="M84,113.6c3.7,0,6.8,3,6.8,6.8s-3,6.8-6.8,6.8c-3.7,0-6.8-3-6.8-6.8c0,0,0,0,0-0.1
	C77.2,116.6,80.2,113.6,84,113.6C84,113.6,84,113.5,84,113.6L84,113.6z M84,124.7c2.4,0,4.4-1.9,4.4-4.3s-1.9-4.4-4.3-4.4
	c-2.4,0-4.4,1.9-4.4,4.3C79.7,122.7,81.6,124.6,84,124.7L84,124.7z"/>
<path class="st0" d="M100.5,116h-4.1c-0.2,0-0.4-0.2-0.4-0.3c0,0,0,0,0,0v-1.5c0-0.2,0.1-0.4,0.3-0.4c0,0,0,0,0,0h10.8
	c0.2,0,0.4,0.2,0.4,0.4l0,0v1.5c0,0.2-0.1,0.4-0.3,0.4c0,0,0,0,0,0H103v10.6c0,0.2-0.2,0.4-0.4,0.4h-1.8c-0.2,0-0.4-0.2-0.4-0.4V116
	z"/>
<path class="st0" d="M113.8,114.1c0-0.2,0.2-0.4,0.4-0.4l0,0h8.3c0.2,0,0.4,0.2,0.4,0.4l0,0v1.5c0,0.2-0.2,0.4-0.4,0.4l0,0h-6.2v3.1
	h4.7c0.2,0,0.4,0.2,0.4,0.4v1.6c0,0.2-0.2,0.4-0.4,0.4l0,0h-4.7v3.3h6.2c0.2,0,0.4,0.2,0.4,0.4l0,0v1.5c0,0.2-0.2,0.4-0.4,0.4h-8.3
	c-0.2,0-0.4-0.2-0.4-0.4L113.8,114.1L113.8,114.1z"/>
<path class="st0" d="M130.6,114.1c0-0.2,0.2-0.4,0.4-0.4l0,0h1.7c0.2,0,0.3,0.2,0.4,0.4v10.6h6.1c0.2,0,0.4,0.2,0.4,0.4l0,0v1.5
	c0,0.2-0.2,0.4-0.4,0.4H131c-0.2,0-0.4-0.2-0.4-0.4l0,0L130.6,114.1L130.6,114.1z"/>
<path class="st0" d="M145,125.1l0.7-1.2c0.1-0.2,0.4-0.3,0.6-0.2c0,0,0,0,0.1,0c0.8,0.6,1.7,0.9,2.6,1c0.9,0.1,1.6-0.6,1.7-1.4
	c0,0,0,0,0,0c0-1-0.6-1.5-2.2-2.1c-1.8-0.7-3.6-1.8-3.6-4.1c0-1.7,1.3-3.6,4.2-3.6c1.4,0,2.7,0.5,3.8,1.3c0.2,0.1,0.3,0.4,0.1,0.6
	l-0.7,1.1c-0.1,0.2-0.4,0.3-0.7,0.2c0,0,0,0,0,0c-0.7-0.5-1.5-0.8-2.4-0.9c-0.8-0.1-1.6,0.5-1.7,1.3c0,0.9,0.4,1.3,2,2
	c1.8,0.7,3.9,1.8,3.9,4.3c0,1.9-1.7,3.7-4.3,3.7c-1.5,0.1-3-0.5-4.1-1.5C145,125.5,144.9,125.4,145,125.1L145,125.1z"/>
<path class="st0" d="M143.2,78.9h-2.6h-0.1h-0.1h-0.5c-0.2,0-0.4,0.1-0.5,0.3L133,89.5H133l-6.3-10.3c-0.1-0.2-0.3-0.3-0.5-0.3H123
	c-0.3,0-0.5,0.2-0.5,0.5v20.8c0,0.3,0.2,0.5,0.5,0.5h2.6c0.3,0,0.5-0.2,0.5-0.5V85.3l6,9.6c0.1,0.2,0.3,0.3,0.5,0.3h0.5
	c0.2,0,0.4-0.1,0.5-0.3c0,0,3.7-5.7,6.3-9.6v15c0,0.3,0.2,0.5,0.5,0.5h2.6c0.3,0,0.5-0.2,0.5-0.5V79.4
	C143.7,79.1,143.4,78.9,143.2,78.9L143.2,78.9z"/>
<path class="st0" d="M88.7,79.5c0-0.3,0.3-0.5,0.6-0.5h2.7c0.3,0,0.5,0.2,0.5,0.5l0,0v12.9c0,2.4,1.7,5,4.1,5h2c2.4-0.1,4-2.6,4-4.9
	v-13c0-0.3,0.2-0.5,0.5-0.5l0,0h2.7c0.3,0,0.5,0.2,0.5,0.5v13.1c0,4.3-3.4,8.4-7.9,8.5h-2c-4.5,0-7.9-4.2-7.9-8.5L88.7,79.5
	L88.7,79.5z"/>
<path class="st0" d="M114.3,11.8c0-3.5-3.2-6.4-7.5-7.2c0.3-0.5,0.4-1,0.4-1.5c0-1.7-1.4-3-3-3s-3,1.4-3,3c0,0.5,0.1,1.1,0.4,1.5
	c-4.2,0.9-7.3,3.8-7.3,7.2c0,3.8,3.8,6.9,8.7,7.4v1.4c-0.5,0.1-0.9,0.7-0.7,1.2c0.1,0.4,0.4,0.6,0.7,0.7v0.8
	c-0.5,0.1-0.9,0.7-0.7,1.2c0.1,0.4,0.4,0.6,0.7,0.7v17.5c-0.5,0.1-0.9,0.7-0.7,1.2c0.1,0.4,0.4,0.6,0.7,0.7v1.8h-4.3
	c-0.3,0-0.5,0.2-0.5,0.5c0,0,0,0,0,0v1c0,0.3,0.2,0.5,0.5,0.5h4.3v1.4h-1c-0.3,0-0.5,0.2-0.5,0.5c0,0,0,0,0,0V54h-1.8v-3.6
	c0-0.3-0.2-0.5-0.5-0.5c0,0,0,0,0,0h-0.5c-0.3,0-0.5,0.2-0.5,0.5c0,0,0,0,0,0v5.2c0,0.3,0.2,0.5,0.5,0.5c0,0,0,0,0,0h4.3v2.1
	c0,0.8,0.6,1.4,1.4,1.4s1.4-0.6,1.4-1.4c0,0,0,0,0,0v-2.1h4.3c0.3,0,0.5-0.2,0.5-0.5v-1c0-0.3-0.2-0.5-0.5-0.5h-1.2v-1.6
	c0-0.3-0.2-0.5-0.5-0.5l0,0h-0.5c-0.3,0-0.5,0.2-0.5,0.5c0,0,0,0,0,0l0,0V54h-1.6v-5.5h1.6v1.5l0,0c0,0.3,0.2,0.5,0.5,0.5
	c0,0,0,0,0,0h0.5c0.3,0,0.5-0.2,0.5-0.5c0,0,0,0,0,0v-1.5h1.2c0.3,0,0.5-0.2,0.5-0.5v-1c0-0.3-0.2-0.5-0.5-0.5h-4.3v-1.8
	c0.5,0.1,1.1-0.2,1.2-0.7c0.1-0.5-0.2-1.1-0.7-1.2c-0.2,0-0.3,0-0.5,0V25.2c0.5,0.1,1.1-0.2,1.2-0.7s-0.2-1.1-0.7-1.2
	c-0.2,0-0.3,0-0.5,0v-0.8c0.5,0.1,1.1-0.2,1.2-0.7s-0.2-1.1-0.7-1.2c-0.2,0-0.3,0-0.5,0v-1.4C110.5,18.6,114.2,15.5,114.3,11.8
	L114.3,11.8z M104.1,1.8c0.7,0,1.2,0.6,1.2,1.2s-0.6,1.2-1.2,1.2c-0.7,0-1.2-0.6-1.2-1.2C102.9,2.3,103.5,1.8,104.1,1.8L104.1,1.8z
	 M96.8,11.8c0-2.3,1.9-4.3,4.6-5.1c1-0.2,2,0,2.8,0.6l0,0c0.9-0.6,1.9-0.8,2.9-0.6c2.7,0.8,4.6,2.8,4.6,5.1s-1.9,4.3-4.6,5.1
	c-1,0.2-2.1,0-2.9-0.6l0,0c-0.8,0.6-1.8,0.8-2.8,0.6C98.7,16,96.8,14.1,96.8,11.8L96.8,11.8z"/>
<path class="st0" d="M167.8,124.1V122h1.8c0.6-0.1,1,0.4,1.1,0.9c0,0.1,0,0.1,0,0.2c0,0.6-0.5,1-1,1c0,0,0,0-0.1,0H167.8z
	 M166.6,127.3c0,0.2,0.2,0.3,0.3,0.3l0,0h0.5c0.2,0,0.3-0.2,0.3-0.3l0,0V125h1.3l1,2.3c0.1,0.1,0.2,0.2,0.3,0.3h0.6
	c0.2,0,0.3-0.1,0.4-0.3c0-0.1,0-0.1,0-0.2l-1.1-2.2c0.9-0.2,1.6-1.1,1.5-2c0-1.1-0.9-2.1-2.1-2.1c-0.1,0-0.1,0-0.2,0H167
	c-0.2,0-0.3,0.2-0.3,0.3l0,0L166.6,127.3L166.6,127.3z M163.5,124.1c0-3,2.5-5.5,5.5-5.5c3,0,5.5,2.5,5.5,5.5c0,3-2.5,5.5-5.5,5.5
	c0,0,0,0,0,0C166,129.7,163.5,127.2,163.5,124.1C163.5,124.2,163.5,124.1,163.5,124.1 M162.4,124.1c0,3.6,3,6.6,6.6,6.6
	c3.6,0,6.6-3,6.6-6.6c0-3.6-3-6.6-6.6-6.6C165.4,117.5,162.4,120.5,162.4,124.1L162.4,124.1"/>
</svg>
