<svg id="Icons" xmlns="http://www.w3.org/2000/svg" width="30" height="36" viewBox="0 0 30 36">
  <metadata><?xpacket begin="﻿" id="W5M0MpCehiHzreSzNTczkc9d"?>
<x:xmpmeta xmlns:x="adobe:ns:meta/" x:xmptk="Adobe XMP Core 5.6-c138 79.159824, 2016/09/14-01:09:01        ">
   <rdf:RDF xmlns:rdf="http://www.w3.org/1999/02/22-rdf-syntax-ns#">
      <rdf:Description rdf:about=""/>
   </rdf:RDF>
</x:xmpmeta>
                                                                                                    
                                                                                                    
                                                                                                    
                                                                                                    
                                                                                                    
                                                                                                    
                                                                                                    
                                                                                                    
                                                                                                    
                                                                                                    
                                                                                                    
                                                                                                    
                                                                                                    
                                                                                                    
                                                                                                    
                                                                                                    
                                                                                                    
                                                                                                    
                                                                                                    
                                                                                                    
                           
<?xpacket end="w"?></metadata>
<defs>
    <style>
      .cls-1 {
        fill: #2b337e;
        fill-rule: evenodd;
      }
    </style>
  </defs>
  <path id="Shape_-_Location" data-name="Shape - Location" class="cls-1" d="M14.647,2.074c-5.352,0-9.706,4.921-9.706,10.97a11.994,11.994,0,0,0,1.537,5.923L11.384,26.1a6.445,6.445,0,0,0-1.077.508A3.7,3.7,0,0,0,8.288,29.69a3.677,3.677,0,0,0,2.019,3.074,8.53,8.53,0,0,0,4.34,1.088,8.531,8.531,0,0,0,4.341-1.088,3.677,3.677,0,0,0,2.018-3.074A3.7,3.7,0,0,0,18.988,26.6,6.45,6.45,0,0,0,17.91,26.1l4.905-7.128a11.994,11.994,0,0,0,1.538-5.923C24.353,6.995,20,2.074,14.647,2.074Zm0,1.513c4.629,0,8.367,4.225,8.367,9.457a10.326,10.326,0,0,1-1.328,5.108L14.647,29.04,7.608,18.152A10.325,10.325,0,0,1,6.28,13.044C6.28,7.812,10.018,3.587,14.647,3.587Zm0,4.162c-2.58,0-4.686,2.38-4.686,5.3s2.106,5.3,4.686,5.3,4.686-2.38,4.686-5.3S17.227,7.749,14.647,7.749Zm0,1.513a3.574,3.574,0,0,1,3.347,3.783,3.574,3.574,0,0,1-3.347,3.783A3.574,3.574,0,0,1,11.3,13.044,3.574,3.574,0,0,1,14.647,9.262ZM12.137,27.42l1.945,3.428a0.658,0.658,0,0,0,1.13,0l1.945-3.428a5.911,5.911,0,0,1,1.2.532,2.229,2.229,0,0,1,1.307,1.737,2.229,2.229,0,0,1-1.307,1.738,7.433,7.433,0,0,1-3.713.911,7.433,7.433,0,0,1-3.713-.911A2.229,2.229,0,0,1,9.627,29.69a2.229,2.229,0,0,1,1.307-1.737A5.955,5.955,0,0,1,12.137,27.42Z"/>
</svg>
