<svg xmlns="http://www.w3.org/2000/svg" width="30" height="37" viewBox="0 0 30 37">
  <metadata><?xpacket begin="﻿" id="W5M0MpCehiHzreSzNTczkc9d"?>
<x:xmpmeta xmlns:x="adobe:ns:meta/" x:xmptk="Adobe XMP Core 5.6-c138 79.159824, 2016/09/14-01:09:01        ">
   <rdf:RDF xmlns:rdf="http://www.w3.org/1999/02/22-rdf-syntax-ns#">
      <rdf:Description rdf:about=""/>
   </rdf:RDF>
</x:xmpmeta>
                                                                                                    
                                                                                                    
                                                                                                    
                                                                                                    
                                                                                                    
                                                                                                    
                                                                                                    
                                                                                                    
                                                                                                    
                                                                                                    
                                                                                                    
                                                                                                    
                                                                                                    
                                                                                                    
                                                                                                    
                                                                                                    
                                                                                                    
                                                                                                    
                                                                                                    
                                                                                                    
                           
<?xpacket end="w"?></metadata>
<defs>
    <style>
      .cls-1 {
        fill: #87744d;
        fill-rule: evenodd;
      }
    </style>
  </defs>
  <path id="Shape_-_Location" data-name="Shape - Location" class="cls-1" d="M15,2A11.213,11.213,0,0,0,4,13.392a11.653,11.653,0,0,0,1.742,6.151l5.559,7.4a7.6,7.6,0,0,0-1.221.528,3.834,3.834,0,0,0-2.288,3.2,3.817,3.817,0,0,0,2.288,3.192A10.362,10.362,0,0,0,15,35a10.363,10.363,0,0,0,4.919-1.13,3.817,3.817,0,0,0,2.288-3.192,3.834,3.834,0,0,0-2.288-3.2,7.612,7.612,0,0,0-1.221-.528l5.559-7.4A11.653,11.653,0,0,0,26,13.392,11.213,11.213,0,0,0,15,2Zm0,1.571a9.645,9.645,0,0,1,9.483,9.821,10.033,10.033,0,0,1-1.505,5.3L15,30,7.023,18.7a10.033,10.033,0,0,1-1.505-5.3A9.645,9.645,0,0,1,15,3.571Zm0,4.321a5.419,5.419,0,0,0-5.31,5.5,5.419,5.419,0,0,0,5.31,5.5,5.419,5.419,0,0,0,5.31-5.5A5.419,5.419,0,0,0,15,7.893Zm0,1.571a3.851,3.851,0,0,1,3.793,3.928,3.8,3.8,0,1,1-7.586,0A3.851,3.851,0,0,1,15,9.464ZM12.155,28.321l2.2,3.56a0.782,0.782,0,0,0,1.28,0l2.2-3.56a7.028,7.028,0,0,1,1.363.553,2.335,2.335,0,0,1,1.482,1.8,2.335,2.335,0,0,1-1.482,1.8A9.038,9.038,0,0,1,15,33.428a9.039,9.039,0,0,1-4.208-.946,2.335,2.335,0,0,1-1.482-1.8,2.335,2.335,0,0,1,1.482-1.8A7.058,7.058,0,0,1,12.155,28.321Z"/>
</svg>
