<svg xmlns="http://www.w3.org/2000/svg" width="30" height="32" viewBox="0 0 30 32">
  <metadata><?xpacket begin="﻿" id="W5M0MpCehiHzreSzNTczkc9d"?>
<x:xmpmeta xmlns:x="adobe:ns:meta/" x:xmptk="Adobe XMP Core 5.6-c138 79.159824, 2016/09/14-01:09:01        ">
   <rdf:RDF xmlns:rdf="http://www.w3.org/1999/02/22-rdf-syntax-ns#">
      <rdf:Description rdf:about=""/>
   </rdf:RDF>
</x:xmpmeta>
                                                                                                    
                                                                                                    
                                                                                                    
                                                                                                    
                                                                                                    
                                                                                                    
                                                                                                    
                                                                                                    
                                                                                                    
                                                                                                    
                                                                                                    
                                                                                                    
                                                                                                    
                                                                                                    
                                                                                                    
                                                                                                    
                                                                                                    
                                                                                                    
                                                                                                    
                                                                                                    
                           
<?xpacket end="w"?></metadata>
<defs>
    <style>
      .cls-1 {
        fill: #87744d;
        fill-rule: evenodd;
      }
    </style>
  </defs>
  <path id="Shape_-_Call" data-name="Shape - Call" class="cls-1" d="M22.05,15.65a0.708,0.708,0,0,0-.235-0.133L19.3,13.382a0.733,0.733,0,0,1-.182-0.389V12a1.8,1.8,0,0,0-3.606,0v0.848H13.653V12a1.8,1.8,0,0,0-3.606,0v0.994a0.706,0.706,0,0,1-.18.379L4.785,17.583a4.007,4.007,0,0,0-1.331,2.8v4.954A2.846,2.846,0,0,0,6.446,28H22.554a2.86,2.86,0,0,0,2.991-2.7V20.312a4.07,4.07,0,0,0-1.311-2.8Zm2.058,9.65a1.448,1.448,0,0,1-1.554,1.308H6.446a1.436,1.436,0,0,1-1.553-1.274V20.381a2.7,2.7,0,0,1,.827-1.74L10.8,14.43a2.026,2.026,0,0,0,.683-1.436V12a0.365,0.365,0,0,1,.73,0v0.994A1.268,1.268,0,0,0,13.5,14.24h2.163a1.269,1.269,0,0,0,1.287-1.246V12a0.365,0.365,0,0,1,.73,0v0.994a2.05,2.05,0,0,0,.671,1.436L21.1,16.765a0.693,0.693,0,0,0,.228.125l1.956,1.664a2.761,2.761,0,0,1,.822,1.759V25.3h0ZM14.5,15.478a4.036,4.036,0,1,0,4.167,4.034A4.107,4.107,0,0,0,14.5,15.478Zm0,6.675a2.643,2.643,0,1,1,2.73-2.642A2.69,2.69,0,0,1,14.5,22.154ZM25.624,5.761C25.209,5.478,21.366,3,14.514,3H14.5c-6.86,0-10.7,2.479-11.1,2.75A4.521,4.521,0,0,0,1,9.581a4.329,4.329,0,0,0,1.215,3.446,4.14,4.14,0,0,0,2.846.872c0.335,0,.7-0.019,1.137-0.061,2.061-.193,3.071-1.113,3.378-3.077,0.048-.308.086-1.149,0.093-1.314A0.737,0.737,0,0,1,9.923,9.01C9.934,9,11.067,8.438,14.5,8.413,17.916,8.438,19.059,9,19.06,9a0.735,0.735,0,0,1,.271.447c0.007,0.162.044,0.971,0.091,1.294l0,0.02A3.292,3.292,0,0,0,22.8,13.839c0.44,0.042.8,0.06,1.138,0.06a4.143,4.143,0,0,0,2.846-.872A4.333,4.333,0,0,0,28,9.581,4.508,4.508,0,0,0,25.624,5.761ZM25.819,12a2.792,2.792,0,0,1-1.879.511c-0.288,0-.606-0.017-1-0.054-1.4-.131-1.887-0.575-2.094-1.9l0-.014c-0.025-.175-0.057-0.705-0.077-1.15a2.07,2.07,0,0,0-.956-1.576c-0.206-.122-1.415-0.733-5-0.789a0.546,0.546,0,0,0-.077-0.006l-0.231,0-0.234,0a0.255,0.255,0,0,0-.061.006C10.6,7.08,9.393,7.692,9.188,7.814a2.063,2.063,0,0,0-.956,1.575c-0.013.3-.049,0.974-0.079,1.165l0,0.015c-0.208,1.313-.7,1.754-2.093,1.884-0.394.037-.711,0.054-1,0.054A2.793,2.793,0,0,1,3.18,12,3.1,3.1,0,0,1,2.437,9.58,3.114,3.114,0,0,1,4.123,6.948,0.63,0.63,0,0,0,4.19,6.907C4.226,6.882,7.93,4.39,14.5,4.39S24.771,6.881,24.8,6.9a0.679,0.679,0,0,0,.069.043A3.117,3.117,0,0,1,26.561,9.58,3.1,3.1,0,0,1,25.819,12Z"/>
</svg>
