<svg id="Icons" xmlns="http://www.w3.org/2000/svg" width="30" height="29" viewBox="0 0 30 29">
  <metadata><?xpacket begin="﻿" id="W5M0MpCehiHzreSzNTczkc9d"?>
<x:xmpmeta xmlns:x="adobe:ns:meta/" x:xmptk="Adobe XMP Core 5.6-c138 79.159824, 2016/09/14-01:09:01        ">
   <rdf:RDF xmlns:rdf="http://www.w3.org/1999/02/22-rdf-syntax-ns#">
      <rdf:Description rdf:about=""/>
   </rdf:RDF>
</x:xmpmeta>
                                                                                                    
                                                                                                    
                                                                                                    
                                                                                                    
                                                                                                    
                                                                                                    
                                                                                                    
                                                                                                    
                                                                                                    
                                                                                                    
                                                                                                    
                                                                                                    
                                                                                                    
                                                                                                    
                                                                                                    
                                                                                                    
                                                                                                    
                                                                                                    
                                                                                                    
                                                                                                    
                           
<?xpacket end="w"?></metadata>
<defs>
    <style>
      .cls-1 {
        fill: #2b337e;
        fill-rule: evenodd;
      }
    </style>
  </defs>
  <path id="Shape_-_Call" data-name="Shape - Call" class="cls-1" d="M21.456,14.108a0.614,0.614,0,0,0-.207-0.127l-2.217-2.057a0.733,0.733,0,0,1-.16-0.374V10.592a1.593,1.593,0,1,0-3.182,0v0.817H14.047V10.592a1.593,1.593,0,1,0-3.182,0v0.958a0.706,0.706,0,0,1-.159.364L6.222,15.969a4.008,4.008,0,0,0-1.174,2.693v4.77A2.607,2.607,0,0,0,7.687,26H21.9a2.623,2.623,0,0,0,2.639-2.6V18.6a4.077,4.077,0,0,0-1.157-2.7ZM23.271,23.4A1.32,1.32,0,0,1,21.9,24.66H7.687a1.306,1.306,0,0,1-1.37-1.227v-4.77a2.7,2.7,0,0,1,.73-1.675l4.484-4.055a2.026,2.026,0,0,0,.6-1.383V10.593a0.323,0.323,0,1,1,.644,0V11.55a1.17,1.17,0,0,0,1.136,1.2h1.908a1.171,1.171,0,0,0,1.136-1.2V10.593a0.323,0.323,0,1,1,.644,0V11.55a2.052,2.052,0,0,0,.593,1.382l2.424,2.25a0.6,0.6,0,0,0,.2.12l1.726,1.6a2.769,2.769,0,0,1,.726,1.693v4.8h0Zm-8.477-9.458a3.789,3.789,0,0,0-3.677,3.884,3.789,3.789,0,0,0,3.677,3.884,3.789,3.789,0,0,0,3.677-3.884A3.789,3.789,0,0,0,14.794,13.942Zm0,6.428A2.548,2.548,0,1,1,17.2,17.826,2.482,2.482,0,0,1,14.794,20.37ZM24.61,4.585c-0.367-.273-3.758-2.657-9.8-2.66H14.791C8.738,1.925,5.346,4.312,5,4.572A4.413,4.413,0,0,0,2.882,8.263a4.39,4.39,0,0,0,1.072,3.318,3.454,3.454,0,0,0,2.511.84,9.523,9.523,0,0,0,1-.059A2.989,2.989,0,0,0,10.45,9.4c0.042-.3.076-1.106,0.082-1.266a0.725,0.725,0,0,1,.224-0.421c0.01-.006,1.01-0.551,4.037-0.575a9.811,9.811,0,0,1,4.025.566,0.721,0.721,0,0,1,.239.43c0.006,0.156.039,0.935,0.081,1.247l0,0.019a3.019,3.019,0,0,0,2.98,2.963,9.72,9.72,0,0,0,1,.058,3.456,3.456,0,0,0,2.511-.84,4.394,4.394,0,0,0,1.072-3.318A4.4,4.4,0,0,0,24.61,4.585Zm0.172,6a2.32,2.32,0,0,1-1.658.491,8.554,8.554,0,0,1-.882-0.052A1.739,1.739,0,0,1,20.394,9.2l0-.014c-0.022-.168-0.05-0.679-0.068-1.107a2.026,2.026,0,0,0-.844-1.517C19.3,6.444,18.231,5.856,15.067,5.8A0.434,0.434,0,0,0,15,5.8l-0.2,0-0.207,0a0.2,0.2,0,0,0-.054.006c-3.181.054-4.246,0.643-4.427,0.76a2.019,2.019,0,0,0-.844,1.516C9.252,8.365,9.22,9.016,9.194,9.2l0,0.014a1.736,1.736,0,0,1-1.846,1.814,8.768,8.768,0,0,1-.881.052,2.32,2.32,0,0,1-1.659-.492A3.167,3.167,0,0,1,4.15,8.262,3.034,3.034,0,0,1,5.638,5.728,0.567,0.567,0,0,0,5.7,5.688a16.166,16.166,0,0,1,9.1-2.424,16.173,16.173,0,0,1,9.09,2.421,0.625,0.625,0,0,0,.061.041,3.036,3.036,0,0,1,1.49,2.536A3.166,3.166,0,0,1,24.781,10.59Z"/>
</svg>
